<svg xmlns="http://www.w3.org/2000/svg" viewBox="639 351 162 148" width="162" height="148">
  <style>
    .a{fill:#f6e4c8}
    .b{fill:#995c00}
  </style>
  <path class="a" d="M639.2 351.3l161.6-0.1v148h-161.6z"/>
  <path class="b" d="M743.1 375.3c4.2-0.1 7.7 3.4 7.7 7.6v84.7c0 4.2-3.5 7.6-7.7 7.6h-46.2c-4.2 0-7.7-3.4-7.7-7.6v-84.7c0-4.2 3.5-7.7 7.7-7.7zm3.9 80v-67.6h-53.9v67.6zm0 3.9h-53.8v8.5c0 2.1 1.7 3.8 3.8 3.8h46.2c2.1 0 3.8-1.7 3.8-3.8zm-3.8-80h-46.2c-2.1 0-3.8 1.7-3.8 3.8v0.8h53.8v-0.8c0-2.1-1.7-3.8-3.8-3.8zm-20 85c0 1.4-1.2 2.6-2.7 2.6-1.5 0-2.7-1.2-2.7-2.6 0-1.5 1.2-2.7 2.7-2.7 1.5 0 2.7 1.2 2.7 2.7zm-18.9-61.9h12v12h-12zm3 3v6h6v-6zm30 15h-4v-4h4zm-33 1h12v12h-12zm3 3v6h6v-6zm30 5h-4v-4h4zm-8-4v-4h4v4zm0 4h-4v-4h4zm4 0v4h-4v-4zm-4-9h-4v-4h4zm8-18v12h-12v-12zm-9 9h6v-6h-6zm-9-9h3v12h-3zm3 24v7h-3v-7zm-10-7h-8v-3h8zm10-3v7h-3v-4h-4v-3z"/>
</svg>