<?xml version="1.0" encoding="UTF-8" standalone="no"?>
<!-- Created with Inkscape (http://www.inkscape.org/) -->

<svg
   width="37.87775mm"
   height="37.674179mm"
   viewBox="0 0 37.87775 37.674179"
   version="1.1"
   id="svg827"
   xmlns="http://www.w3.org/2000/svg"
   xmlns:svg="http://www.w3.org/2000/svg">
  <defs
     id="defs824" />
  <g
     id="layer1"
     transform="translate(-0.10444348,-0.61944498)">
    <path
       d="m 11.586839,14.243218 c -0.9906,1.14459 -0.69374,2.90672 0.61595,3.66395 l 22.15674,12.79208 c 2.00977,1.16046 4.33705,-0.91281 3.41471,-3.04324 L 26.698249,2.0718577 c -0.70485,-1.62876999 -2.8702,-1.96214999 -4.03225,-0.61912 L 11.586839,14.244808 Z"
       fill="#0066cc"
       id="path1390"
       style="stroke-width:0.264583" />
    <path
       d="m 8.9182495,15.784688 c -0.9906,1.14458 -0.69373,2.90671 0.61595,3.66395 l 22.1567395,12.79207 c 2.00978,1.16046 4.33705,-0.91281 3.41471,-3.04324 L 24.028079,3.6117377 c -0.70485,-1.62878 -2.8702,-1.96215 -4.03225,-0.61913 L 8.9166695,15.784688 Z"
       fill="#ffb357"
       id="path1392"
       style="stroke-width:0.264583" />
    <path
       d="m 6.2115675,17.375358 c -0.9906,1.14459 -0.69374,2.90671 0.61595,3.66395 l 22.1567315,12.79208 c 2.00978,1.16046 4.33705,-0.91282 3.41472,-3.04324 L 21.322979,5.2024077 c -0.70485,-1.62877 -2.8702,-1.96215 -4.03225,-0.61912 z"
       fill="#7ac1fa"
       id="path1394"
       style="stroke-width:0.264583" />
    <path
       d="m 24.634239,18.221758 -0.40481,-0.59372 c -0.0746,-0.10954 -0.21749,-0.1524 -0.33973,-0.10001 l -1.53193,0.6477 -1.3081,-2.05899 c -0.0714,-0.11271 -0.21432,-0.15875 -0.33973,-0.10954 l -0.49371,0.19685 c -0.16193,0.0651 -0.22543,0.26194 -0.13176,0.40958 l 1.26365,1.98913 -1.55893,0.65882 c -0.16192,0.0683 -0.22066,0.26828 -0.12224,0.41433 l 0.40482,0.59373 c 0.0746,0.10954 0.21748,0.1524 0.33972,0.10001 l 1.62243,-0.6858 1.2827,2.01771 c 0.0714,0.11272 0.21431,0.15875 0.33972,0.10954 l 0.49371,-0.19685 c 0.16193,-0.0651 0.22543,-0.26194 0.13177,-0.40957 l -1.23825,-1.94787 1.46685,-0.61912 c 0.16192,-0.0683 0.22066,-0.26829 0.12223,-0.41434 z"
       fill="#003366"
       id="path1396"
       style="stroke-width:0.264583" />
    <path
       d="m 13.849029,16.597488 1.56845,-0.66199 1.24936,1.96691 c 0.0905,0.14288 0.27146,0.20161 0.42863,0.13811 l 0.3556,-0.14128 c 0.20478,-0.0825 0.28575,-0.3302 0.16668,-0.51753 l -1.19062,-1.87325 1.3843,-0.5842 c 0.20479,-0.0873 0.2794,-0.33972 0.15399,-0.52387 l -0.32068,-0.4699 c -0.0952,-0.1397 -0.27464,-0.19209 -0.42862,-0.127 l -1.47638,0.62388 -1.27635,-2.00818 c -0.0905,-0.14288 -0.27146,-0.20162 -0.42862,-0.13812 l -0.3556,0.14129 c -0.20479,0.0825 -0.28575,0.3302 -0.16669,0.51753 l 1.21602,1.91452 -1.47478,0.62389 c -0.20479,0.0873 -0.2794,0.33972 -0.15399,0.52387 l 0.32067,0.4699 c 0.0952,0.13812 0.27464,0.19209 0.42863,0.127 z"
       fill="#003366"
       id="path1398"
       style="stroke-width:0.264583" />
    <path
       d="m 22.431049,24.919158 -8.67568,-5.00856 c -0.18098,-0.10478 -0.4064,0.0254 -0.4064,0.23495 v 0.41275 c 0,0.19367 0.10318,0.37147 0.26987,0.46831 l 8.67569,5.00856 c 0.18097,0.10478 0.4064,-0.0254 0.4064,-0.23495 v -0.41275 c 0,-0.19367 -0.10319,-0.37147 -0.26988,-0.46831 z"
       fill="#003366"
       id="path1400"
       style="stroke-width:0.264583" />
    <path
       d="m 15.560349,28.375148 -0.99853,0.66357 0.29051,-5.89915 c 0.10319,-2.08597 -1.07791,-4.23386 -2.76225,-5.02761 l -1.32874,-0.62547 c -1.8589595,-0.87472 -3.6623615,0.2032 -4.0274915,2.40823 l -1.19697,7.45967 2.706692,5.11492 1.8430795,-0.4572 -4.0640015,2.70034 0.92234,0.29686 2.536832,0.9271 7.9771795,-4.64661 c 0.5207,-0.33814 0.82074,-0.93028 0.7874,-1.5494 -0.0714,-1.33668 -1.56368,-2.0955 -2.68446,-1.36525 z"
       fill="#ffb357"
       id="path1402"
       style="stroke-width:0.264583" />
    <path
       d="m 11.553499,34.134598 c 0,-2.35109 -1.9049995,-5.35623 -4.2560815,-6.71354 -1.36049,-0.78581 -2.57175,-0.84455 -3.35122,-0.30162 l -2.55428,1.49701 c -0.18098,0.0714 -0.34608,0.16827 -0.49213002,0.28892 -0.500064,0.40958 -0.795344,1.0922 -0.795344,2.01613 0,2.35109 1.90500402,5.35622 4.25609402,6.71354 1.36366,0.7874 2.57651,0.84613 3.35598,0.29686 l 2.7305015,-1.5748 c 0.68738,-0.35878 1.10648,-1.12078 1.10648,-2.22409 z"
       fill="#0066cc"
       id="path1404"
       style="stroke-width:0.264583" />
  </g>
</svg>
