<svg width="100" height="100" viewBox="0 0 100 100" fill="none" xmlns="http://www.w3.org/2000/svg">
<path d="M25.7886 6.55566C26.012 6.52451 26.2399 6.54542 26.4547 6.61426C26.6158 6.66594 26.7666 6.74421 26.9009 6.8457L27.0298 6.95508C29.9402 9.75303 33.5731 12.7418 43.1129 22.8867L45.1011 25.0137C45.2348 25.1581 45.3385 25.3273 45.4068 25.5117C45.4751 25.6964 45.5062 25.8931 45.4986 26.0898C45.491 26.2866 45.4453 26.4803 45.3629 26.6592C45.2805 26.838 45.1637 26.9991 45.0191 27.1328C44.8744 27.2666 44.704 27.3702 44.5191 27.4385C44.3343 27.5067 44.138 27.5388 43.941 27.5312C43.7439 27.5236 43.5497 27.4769 43.3707 27.3945C43.1918 27.3122 43.0309 27.1953 42.897 27.0508L42.8961 27.0498C35.0981 18.6645 31.1835 14.9319 28.3404 12.2852L27.4996 11.502V92.0088C27.5023 92.2071 27.4652 92.4038 27.3912 92.5879C27.3171 92.7722 27.2075 92.9406 27.0679 93.082C26.9284 93.2234 26.7619 93.3355 26.5787 93.4121C26.3954 93.4887 26.1985 93.5283 25.9996 93.5283C25.8007 93.5283 25.6038 93.4887 25.4205 93.4121C25.2372 93.3355 25.0708 93.2234 24.9312 93.082C24.7917 92.9406 24.6811 92.7722 24.607 92.5879C24.5331 92.4039 24.4968 92.207 24.4996 92.0088V11.502L23.6588 12.2852C20.8156 14.9319 16.9003 18.6642 9.10211 27.0498V27.0508C8.96821 27.1954 8.8066 27.3121 8.6275 27.3945C8.44856 27.4768 8.25516 27.5236 8.05817 27.5312C7.86108 27.5389 7.664 27.5078 7.47906 27.4395C7.29414 27.3711 7.12471 27.2666 6.98004 27.1328C6.83538 26.999 6.71868 26.838 6.63629 26.6592C6.55389 26.4803 6.50718 26.2866 6.49957 26.0898C6.492 25.8931 6.52306 25.6964 6.59137 25.5117C6.65969 25.3272 6.76426 25.1581 6.89801 25.0137L6.89703 25.0127C17.9377 13.1404 21.8649 9.93962 24.9693 6.95508C25.1946 6.7407 25.4807 6.60023 25.7886 6.55566ZM72.4976 28.0352C72.4896 27.6609 72.6227 27.2973 72.8697 27.0156C73.1169 26.7339 73.4608 26.5547 73.8336 26.5137C74.0459 26.4903 74.2613 26.5118 74.4644 26.5781C74.6674 26.6444 74.8538 26.7535 75.0113 26.8975C75.1688 27.0415 75.2936 27.2179 75.3775 27.4141C75.4614 27.6101 75.5022 27.822 75.4976 28.0352V88.5596L76.3384 87.7764C79.1827 85.1287 83.0945 81.3686 90.8951 72.9805L90.8961 72.9795C91.1663 72.6878 91.5413 72.5155 91.939 72.5C92.3369 72.4846 92.725 72.6273 93.0172 72.8975C93.3093 73.1677 93.4822 73.543 93.4976 73.9404C93.513 74.3377 93.3695 74.7247 93.0992 75.0166C82.0602 86.887 78.134 90.0901 75.0298 93.0742C74.7512 93.3378 74.3813 93.4854 73.9976 93.4854C73.6141 93.4852 73.2449 93.3377 72.9664 93.0742C69.8621 90.0901 65.9354 86.8875 54.8961 75.0166L54.8922 75.0117L54.8209 74.9316C54.6631 74.7405 54.5547 74.5127 54.5064 74.2686C54.4512 73.9894 54.4764 73.6998 54.5797 73.4346C54.6829 73.1694 54.86 72.9391 55.0894 72.7705C55.3189 72.6019 55.5921 72.5027 55.8765 72.4834L55.8775 72.4824C56.1047 72.4667 56.3326 72.5027 56.5435 72.5879C56.7547 72.6731 56.9438 72.8056 57.0963 72.9746L57.1011 72.9805C64.9017 81.3686 68.8136 85.1287 71.6578 87.7764L72.4976 88.5596V28.0459H72.4986L72.4976 28.0352ZM72.4976 18.043C72.4896 17.6685 72.6225 17.3042 72.8697 17.0225C73.1169 16.7408 73.4608 16.5615 73.8336 16.5205C74.0459 16.4971 74.2613 16.5196 74.4644 16.5859C74.6674 16.6522 74.8538 16.7612 75.0113 16.9053C75.1687 17.0493 75.2936 17.2249 75.3775 17.4209C75.4614 17.6171 75.5022 17.8297 75.4976 18.043V20.0586C75.5004 20.257 75.4642 20.4545 75.3902 20.6387C75.3161 20.8229 75.2055 20.9904 75.066 21.1318C74.9264 21.2733 74.7601 21.3862 74.5767 21.4629C74.3934 21.5395 74.1963 21.5791 73.9976 21.5791C73.799 21.579 73.6018 21.5395 73.4185 21.4629C73.2352 21.3862 73.0687 21.2732 72.9293 21.1318C72.7899 20.9905 72.68 20.8227 72.606 20.6387C72.532 20.4545 72.4948 20.2571 72.4976 20.0586V18.0537H72.4986L72.4976 18.043ZM72.4976 8.0498C72.4896 7.6753 72.6225 7.31103 72.8697 7.0293C73.1127 6.75233 73.4494 6.57512 73.815 6.53027H73.9742C74.1751 6.52713 74.375 6.56436 74.5611 6.63965C74.7474 6.71506 74.9171 6.82775 75.0591 6.96973C75.2011 7.11163 75.3129 7.28084 75.3882 7.4668C75.4636 7.6528 75.5008 7.85211 75.4976 8.05273V10.0664C75.5004 10.2647 75.4641 10.4615 75.3902 10.6455C75.3161 10.8298 75.2055 10.9982 75.066 11.1396C74.9265 11.2809 74.76 11.3931 74.5767 11.4697C74.3934 11.5463 74.1964 11.5859 73.9976 11.5859C73.7989 11.5859 73.6018 11.5463 73.4185 11.4697C73.2353 11.3931 73.0687 11.281 72.9293 11.1396C72.7897 10.9982 72.6801 10.8297 72.606 10.6455C72.5321 10.4615 72.4949 10.2647 72.4976 10.0664V8.06055H72.4986L72.4976 8.0498Z" fill="#0066CC" stroke="#0066CC"/>
</svg>
