<svg xmlns="http://www.w3.org/2000/svg" viewBox="622 277 196 148" width="196" height="148">
  <style>
    .a{fill:#f6e4c8}
    .b{fill:#995c00}
  </style>
  <rect class="a" x="622" y="277" width="196" height="148"/>
  <path class="b"
    d="M720 401.1c-27.6 0-50-22.4-50-50 0-27.7 22.4-50 50-50 13.3 0 26 5.2 35.4 14.6 9.3 9.4 14.6 22.1 14.6 35.4 0 27.6-22.4 50-50 50zm-45-50c0 24.8 20.1 45 45 45 24.9 0 45-20.2 45-45 0-24.9-20.1-45-45-45-24.9 0-45 20.1-45 45zm66.5-18.5l-18.5 18.5 18.5 18-3.5 3.5-18.5-18-18 18-3.5-3.5 18-18-18-18.5 3.5-3.5 18 18.5 18.5-18.5z"/>
</svg>
