<svg xmlns="http://www.w3.org/2000/svg" viewBox="620 343.2 200 148" width="200" height="148">
  <style>
    .a{fill:#f6e4c8}
    .b{fill:#995c00}
  </style>
  <path class="a" d="M620 343.3l200-0.1v148h-200z"/>
  <path class="b"
    d="M720 467.3c-27.6-0.1-50-22.4-50-50.1 0-27.6 22.4-50 50-50 13.3 0 26 5.3 35.4 14.7 9.3 9.4 14.6 22.1 14.6 35.3 0 27.7-22.4 50-50 50zm-45-50c0 24.9 20.1 45 45 45 24.9 0 45-20.1 45-45 0-24.8-20.1-45-45-45-24.9 0-45 20.2-45 45zm70.5-20.5l3.5 3.5-39 38-23.5-23 3.5-3.5 20 19.5z"/>
</svg>