<?xml version="1.0" encoding="UTF-8"?>
<svg id="Layer_1" data-name="Layer 1" xmlns="http://www.w3.org/2000/svg" viewBox="0 0 1286.49 262.17">
  <defs>
    <style>
      .cls-1 {
        fill: #06c;
      }
    </style>
  </defs>
  <g>
    <path class="cls-1" d="M1067.04,185.86h-7.91c-5.2,0-8.08-3.17-8.08-8.37V46.96c0-1.86-1.5-3.26-3.36-3.26h-35.66c-1.86,0-3.26,1.4-3.26,3.26v134.71c0,24.77,13.11,36.83,40.36,36.82h18.07c1.86,0,3.43-1.38,3.43-3.24v-26.06c0-1.86-1.73-3.33-3.59-3.33Z"/>
    <path class="cls-1" d="M1137.18,87.76c-39.92,0-63.9,24.96-63.9,67.02s24.47,67.2,66.03,67.2c29.27,0,48.93-12.28,56.92-33.09.68-1.77.98-2.84.97-3.85-.01-1.77-.9-3.37-3.55-3.37h-33.32c-1.13,0-2.31.59-3.6,2.6-3.38,5.28-9.98,8.05-18.24,8.05-17.59,0-24.4-12.52-25.48-27.9h83.21c1.86,0,3.26-1.42,3.26-3.28v-12.33c0-37.33-23.38-61.05-62.31-61.05ZM1113.17,137.69c.09-14.41,9.61-23.24,23.99-23.24s23.3,8.72,23.09,23.24h-47.08Z"/>
    <path class="cls-1" d="M1283.22,123.86c1.86,0,3.28-1.39,3.28-3.26v-26.1c0-1.86-1.63-3.26-3.5-3.26h-21.44v-31.47c0-1.86-1.41-3.26-3.27-3.26h-35.23c-1.86,0-3.46,1.46-3.46,3.32v31.4s-14.68,0-14.68,0c-1.86,0-3.49,1.41-3.49,3.27v26.09c0,1.86,1.39,3.27,3.26,3.27h14.92v50.35c0,29.42,15.07,44.27,45.23,44.27h18.39c1.86,0,3.27-1.4,3.27-3.26v-25.87c0-1.86-1.4-3.5-3.26-3.5h-13.53c-5.2,0-8.15-3.17-8.15-8.37v-53.62s21.67,0,21.67,0Z"/>
    <path class="cls-1" d="M926.4,185.86h-4.89c-3.8,0-6.07-2.52-6.07-7.71v-40.54c0-31.39-21.21-49.85-57.89-49.85-30.23,0-51.83,12.77-60.13,32.37-.87,2.06-1.36,3.63-1.34,4.67.03,1.66,1.32,2.79,3.28,2.79h34.73c1.95,0,3.05-.74,4.19-2.88,2.6-4.91,8.13-7.78,16.59-7.78,12.16,0,19.52,5.89,19.53,16.51v5.12s-31.1,2.1-31.1,2.1c-32.65,2.2-47.46,14.83-47.46,39.7,0,26.3,16.56,41.62,44.53,41.62,14.85,0,28.77-4.32,39.72-12.86,4.84,5.73,13.13,9.38,23.22,9.38h23.15c1.86,0,3.18-1.4,3.18-3.26v-26.08c0-1.86-1.39-3.28-3.25-3.28ZM874.42,185.4c-7.65,4.96-15.1,6.92-21.96,6.92-11.12,0-16.56-5.19-16.56-13.68,0-7.57,4.33-11.87,16.32-12.77l22.21-1.67v21.2Z"/>
    <path class="cls-1" d="M503.97,76.09v-28.89c0-1.86-1.4-3.51-3.27-3.51h-135.86c-1.86,0-3.27,1.63-3.27,3.49v28.9c0,1.86,1.39,3.5,3.25,3.5h46.16s0,135.62,0,135.62c0,1.86,1.63,3.29,3.49,3.29h36.59c1.86,0,3.5-1.4,3.5-3.26V79.59h46.14c1.86,0,3.26-1.63,3.26-3.5Z"/>
    <path class="cls-1" d="M997.11,185.86h-7.91c-5.2,0-8.18-3.17-8.18-8.37V46.96c0-1.86-1.4-3.26-3.27-3.26h-35.66c-1.86,0-3.26,1.4-3.26,3.26v134.71c0,24.77,13.11,36.83,40.36,36.82h18.07c1.86,0,3.33-1.38,3.33-3.24v-26.15c0-1.86-1.63-3.24-3.49-3.24Z"/>
    <path class="cls-1" d="M558.96,130.86l-67.13-.02c-1.86,0-3.25,1.39-3.25,3.26v27.54c.01,1.86,1.47,3.25,3.34,3.25h67.03c1.86,0,3.29-1.4,3.29-3.26v-27.5c0-1.86-1.41-3.26-3.27-3.26Z"/>
    <path class="cls-1" d="M347.05,43.7h-37.05c-1.86,0-3.34,1.37-3.34,3.23l.07,168.31c0,1.86,1.41,3.26,3.27,3.26h37.04c1.86,0,3.27-1.4,3.27-3.26V46.92c0-1.86-1.4-3.23-3.26-3.23Z"/>
    <path class="cls-1" d="M794.88,43.7h-31.91c-1.65,0-2.97,1.27-3.24,2.9l-20.13,119.02h-2.15l-24.88-119.17c-.33-1.56-1.63-2.74-3.23-2.74h-48.68c-1.59,0-3.03,1.18-3.37,2.74l-25.38,118.94h-2.17l-19.86-118.8c-.27-1.62-1.68-2.88-3.33-2.88h-33.09c-2.09,0-3.77,1.96-3.41,4.02l29.47,168.02c.28,1.61,1.66,2.76,3.29,2.76h50.12c1.58,0,2.93-1.08,3.27-2.63l26.77-122.82h2.42l26.77,122.82c.34,1.55,1.66,2.63,3.25,2.63h50.11c1.64,0,3.04-1.14,3.32-2.76l29.47-168.02c.36-2.06-1.34-4.02-3.43-4.02Z"/>
  </g>
  <path class="cls-1" d="M103.45,1.29C101.86.39,100.17-.01,98.53,0c-5.18.04-9.93,4.19-9.9,9.97l.29,52.92L14.98,21.42c-1.6-.9-3.29-1.3-4.93-1.29-5.18.04-9.89,4.19-9.9,9.97l-.16,174.42c0,7.87,3.54,14.73,11.12,18.98l66.47,37.38c1.6.9,3.29,1.3,4.93,1.29,5.18-.04,9.9-4.19,9.9-9.97V73.34l35.14,19.56c7.59,4.22,11.12,11.11,11.12,18.98v104.8s65.73,36.87,65.73,36.87c1.6.9,3.29,1.3,4.93,1.29,5.18-.04,9.9-4.19,9.9-9.97l.07-165.85c0-7.87-3.54-14.73-11.12-18.98L103.45,1.29Z"/>
</svg>