<?xml version="1.0" encoding="UTF-8"?>
<svg id="Layer_1" xmlns="http://www.w3.org/2000/svg" viewBox="0 0 219.3 262.17">
  <defs>
    <style>
      .cls-1 {
        fill: #fff;
      }
    </style>
  </defs>
  <path class="cls-1" d="M103.45,1.29C101.86.39,100.17-.01,98.53,0c-5.18.04-9.93,4.19-9.9,9.97l.29,52.92L14.98,21.42c-1.6-.9-3.29-1.3-4.93-1.29-5.18.04-9.89,4.19-9.9,9.97l-.16,174.42c0,7.87,3.54,14.73,11.12,18.98l66.47,37.38c1.6.9,3.29,1.3,4.93,1.29,5.18-.04,9.9-4.19,9.9-9.97V73.34l35.14,19.56c7.59,4.22,11.12,11.11,11.12,18.98v104.8s65.73,36.87,65.73,36.87c1.6.9,3.29,1.3,4.93,1.29,5.18-.04,9.9-4.19,9.9-9.97l.07-165.85c0-7.87-3.54-14.73-11.12-18.98L103.45,1.29Z"/>
</svg>